<?xml version="1.0" encoding="UTF-8" standalone="no"?>
<!-- Created with Inkscape (http://www.inkscape.org/) -->

<svg
   version="1.1"
   id="svg1"
   width="425.19601"
   height="472.44135"
   viewBox="0 0 425.19601 472.44135"
   sodipodi:docname="12N_subtraction.pdf"
   xmlns:inkscape="http://www.inkscape.org/namespaces/inkscape"
   xmlns:sodipodi="http://sodipodi.sourceforge.net/DTD/sodipodi-0.dtd"
   xmlns="http://www.w3.org/2000/svg"
   xmlns:svg="http://www.w3.org/2000/svg">
  <defs
     id="defs1" />
  <sodipodi:namedview
     id="namedview1"
     pagecolor="#ffffff"
     bordercolor="#000000"
     borderopacity="0.25"
     inkscape:showpageshadow="2"
     inkscape:pageopacity="0.0"
     inkscape:pagecheckerboard="0"
     inkscape:deskcolor="#d1d1d1">
    <inkscape:page
       x="0"
       y="0"
       inkscape:label="1"
       id="page1"
       width="425.19601"
       height="472.44135"
       margin="0"
       bleed="0" />
  </sodipodi:namedview>
  <g
     id="g1"
     inkscape:groupmode="layer"
     inkscape:label="1">
    <path
       id="path1"
       d="M -70.867,-106.3005 V 248.03456 H 248.03456 V -106.3005 Z"
       style="fill:#ffffff;fill-opacity:0;fill-rule:nonzero;stroke:none"
       transform="matrix(1.3333333,0,0,-1.3333333,94.488,330.70933)" />
    <path
       id="path2"
       d="M -35.43347,0 H 212.14278"
       style="fill:none;stroke:#ffffff;stroke-width:0.3985;stroke-linecap:butt;stroke-linejoin:miter;stroke-miterlimit:10;stroke-dasharray:none;stroke-opacity:1"
       transform="matrix(1.3333333,0,0,-1.3333333,94.488,330.70933)" />
    <path
       id="path3"
       d="M -1.19551,1.59401 C -1.09587,0.99626 0,0.09961 0.29886,0 0,-0.09961 -1.09587,-0.99626 -1.19551,-1.59401"
       style="fill:none;stroke:#ffffff;stroke-width:0.31879;stroke-linecap:round;stroke-linejoin:round;stroke-miterlimit:10;stroke-dasharray:none;stroke-opacity:1"
       transform="matrix(1.3333333,0,0,-1.3333333,377.34504,330.70933)" />
    <path
       id="path4"
       d="m 2.2259609,-3.5170547 v -2.578125 c 0,-0.234375 0,-0.3515625 0.2226563,-0.3867187 0.1054687,-0.011719 0.3867187,-0.011719 0.5859375,-0.011719 0.9023437,0 2.015625,0.035156 2.015625,1.4765625 0,0.6914063 -0.234375,1.5 -1.7109375,1.5 z m 2.109375,0.1289063 c 0.9609375,-0.234375 1.7460938,-0.84375 1.7460938,-1.6289063 0,-0.9492187 -1.1367188,-1.7929687 -2.6015625,-1.7929687 H 0.35096094 v 0.3164062 h 0.234375 c 0.77343746,0 0.78515626,0.1054688 0.78515626,0.46875 v 5.25000001 c 0,0.3515625 -0.011719,0.46875 -0.78515626,0.46875 h -0.234375 v 0.3046875 c 0.3515625,-0.03515625 1.06640626,-0.03515625 1.45312496,-0.03515625 0.3867188,0 1.0898438,0 1.453125,0.03515625 v -0.3046875 h -0.234375 c -0.7734375,0 -0.796875,-0.1171875 -0.796875,-0.46875 V -3.2943984 h 1.1484375 c 0.1640625,0 0.5742188,0 0.9257813,0.3398437 0.3867187,0.3515625 0.3867187,0.65625 0.3867187,1.3242188 0,0.65624996 0,1.05468746 0.3984375,1.42968746 0.4101563,0.36328125 0.9609375,0.421875 1.2539063,0.421875 0.7851562,0 0.9492187,-0.8203125 0.9492187,-1.1015625 0,-0.0585938 0,-0.16406246 -0.1289062,-0.16406246 -0.1054688,0 -0.1054688,0.0820312 -0.1171875,0.15234371 -0.058594,0.71484375 -0.4101563,0.890625 -0.65625,0.890625 -0.4921875,0 -0.5742188,-0.50390625 -0.703125,-1.42968751 l -0.140625,-0.796875 C 5.3665859,-2.8725234 4.8861172,-3.2006484 4.3353359,-3.3881484 Z m 4.1103516,0.8789062 c 0.058594,-1.4882812 0.9023438,-1.734375 1.2421875,-1.734375 1.019531,0 1.125,1.3476563 1.125,1.734375 z m -0.011719,0.2109375 h 2.7890625 c 0.210938,0 0.246094,0 0.246094,-0.2109375 0,-0.984375 -0.539062,-1.9570312 -1.7812503,-1.9570312 -1.1601562,0 -2.0742187,1.03125 -2.0742187,2.2734375 0,1.33593746 1.0429687,2.29687496 2.1914062,2.29687496 1.2187508,0 1.6640628,-1.1015625 1.6640628,-1.28906246 0,-0.1054688 -0.08203,-0.1171875 -0.128906,-0.1171875 -0.09375,0 -0.117188,0.058594 -0.128906,0.140625 -0.351563,1.01953121 -1.253907,1.01953121 -1.347657,1.01953121 -0.5039063,0 -0.9023438,-0.29296875 -1.125,-0.66796875 C 8.4339688,-1.2904922 8.4339688,-1.9467422 8.4339685,-2.2983047 Z m 0,0"
       style="fill:#ffffff;fill-opacity:1;fill-rule:nonzero;stroke:none"
       aria-label="Re"
       transform="matrix(1.3333333,0,0,1.3333333,382.64533,335.248)" />
    <path
       id="path5"
       d="M 0,-70.867 V 212.14278"
       style="fill:none;stroke:#ffffff;stroke-width:0.3985;stroke-linecap:butt;stroke-linejoin:miter;stroke-miterlimit:10;stroke-dasharray:none;stroke-opacity:1"
       transform="matrix(1.3333333,0,0,-1.3333333,94.488,330.70933)" />
    <path
       id="path6"
       d="M -1.19551,1.59401 C -1.09587,0.99626 0,0.09961 0.29886,0 0,-0.09961 -1.09587,-0.99626 -1.19551,-1.59401"
       style="fill:none;stroke:#ffffff;stroke-width:0.31879;stroke-linecap:round;stroke-linejoin:round;stroke-miterlimit:10;stroke-dasharray:none;stroke-opacity:1"
       transform="matrix(0,-1.3333333,-1.3333333,0,94.488,47.852293)" />
    <path
       id="path7"
       d="m 2.2382969,-6.0243516 c 0,-0.3632812 0.035156,-0.46875 0.8203125,-0.46875 h 0.2578125 v -0.3164062 c -0.3515625,0.035156 -1.1367188,0.035156 -1.5117188,0.035156 -0.3867187,0 -1.17187497,0 -1.52343747,-0.035156 v 0.3164062 h 0.2578125 c 0.78515627,0 0.82031247,0.1054688 0.82031247,0.46875 v 5.25000004 c 0,0.3515625 -0.035156,0.46875 -0.82031247,0.46875 H 0.28126563 V -9.140625e-4 C 0.63282813,-0.03607031 1.4179844,-0.03607031 1.7929844,-0.03607031 c 0.3867187,0 1.171875,0 1.5234375,0.0351562475 V -0.30560156 H 3.0586094 c -0.7851563,0 -0.8203125,-0.1171875 -0.8203125,-0.46875 z m 2.4609375,2.6015625 v 2.66015629 c 0,0.45703125 -0.1171875,0.45703125 -0.7851563,0.45703125 v 0.3046874975 c 0.3515625,-0.0117187475 0.8554688,-0.0351562475 1.125,-0.0351562475 0.2578125,0 0.7851563,0.0234375 1.1132813,0.0351562475 V -0.30560156 c -0.65625,0 -0.7734375,0 -0.7734375,-0.45703125 V -2.5907578 c 0,-1.03125 0.7148437,-1.59375 1.3476562,-1.59375 0.6210938,0 0.7382813,0.5390625 0.7382813,1.1015625 v 2.32031249 c 0,0.45703125 -0.1171875,0.45703125 -0.7734375,0.45703125 v 0.3046874975 c 0.3398437,-0.0117187475 0.8554687,-0.0351562475 1.125,-0.0351562475 0.2578125,0 0.7734375,0.0234375 1.1132812,0.0351562475 V -0.30560156 c -0.6679687,0 -0.7851562,0 -0.7851562,-0.45703125 V -2.5907578 c 0,-1.03125 0.7148437,-1.59375 1.3476562,-1.59375 0.6328129,0 0.7382809,0.5390625 0.7382809,1.1015625 v 2.32031249 c 0,0.45703125 -0.105468,0.45703125 -0.7734371,0.45703125 V -9.140625e-4 C 9.8086094,-0.01263281 10.312516,-0.03607031 10.582047,-0.03607031 c 0.257812,0 0.773437,0.0234375 1.113281,0.0351562475 V -0.30560156 c -0.515625,0 -0.761719,0 -0.773437,-0.3046875 V -2.5087266 c 0,-0.8554687 0,-1.171875 -0.316407,-1.5234375 -0.128906,-0.1757812 -0.46875,-0.375 -1.0429684,-0.375 -0.8320312,0 -1.2773437,0.5976563 -1.4414062,0.984375 -0.140625,-0.8671875 -0.8789063,-0.984375 -1.3242188,-0.984375 -0.7265625,0 -1.1953125,0.4335938 -1.4765625,1.0546875 v -1.0546875 l -1.40625,0.1171875 v 0.3046875 c 0.703125,0 0.7851563,0.070312 0.7851563,0.5625 z m 0,0"
       style="fill:#ffffff;fill-opacity:1;fill-rule:nonzero;stroke:none"
       aria-label="Im"
       transform="matrix(1.3333333,0,0,1.3333333,86.554667,42.552)" />
    <path
       id="path8"
       d="m 7.3708203,-4.3463047 c 0,-1.59375 -1.0546875,-2.671875 -2.5429687,-2.671875 -2.1445313,0 -4.33593754,2.2617188 -4.33593754,4.5820313 0,1.65234371 1.11328124,2.66015621 2.54296874,2.66015621 2.109375,0 4.3359375,-2.17968751 4.3359375,-4.57031251 z m -4.2773437,4.31250001 c -0.984375,0 -1.6757813,-0.80859375 -1.6757813,-2.12109371 0,-0.4453125 0.140625,-1.8984375 0.9023438,-3.0585938 0.6914062,-1.0429687 1.6640625,-1.5585937 2.4492187,-1.5585937 0.8203125,0 1.7109375,0.5625 1.7109375,2.0390625 0,0.7148437 -0.2695312,2.2734375 -1.2539062,3.5039062 -0.4804688,0.59765626 -1.2890625,1.19531251 -2.1328125,1.19531251 z m 0,0"
       style="fill:#ffffff;fill-opacity:1;fill-rule:nonzero;stroke:none"
       aria-label="O"
       transform="matrix(1.3333333,0,0,1.3333333,79.293333,344.47867)" />
    <path
       id="path9"
       d="m 87.53891,-42.52968 c 0,1.37 -1.11058,2.48058 -2.48058,2.48058 -1.37001,0 -2.48059,-1.11058 -2.48059,-2.48058 0,-1.37001 1.11058,-2.48059 2.48059,-2.48059 1.37,0 2.48058,1.11058 2.48058,2.48059 z"
       style="fill:#ffffff;fill-opacity:1;fill-rule:nonzero;stroke:#ffffff;stroke-width:0.3985;stroke-linecap:butt;stroke-linejoin:miter;stroke-miterlimit:10;stroke-dasharray:none;stroke-opacity:1"
       transform="matrix(1.3333333,0,0,-1.3333333,94.488,330.70933)" />
    <path
       id="path10"
       d="m 158.4211,141.7643 c 0,1.37 -1.11058,2.48057 -2.48058,2.48057 -1.37001,0 -2.48059,-1.11057 -2.48059,-2.48057 0,-1.37001 1.11058,-2.4806 2.48059,-2.4806 1.37,0 2.48058,1.11059 2.48058,2.4806 z"
       style="fill:#ffffff;fill-opacity:1;fill-rule:nonzero;stroke:#ffffff;stroke-width:0.3985;stroke-linecap:butt;stroke-linejoin:miter;stroke-miterlimit:10;stroke-dasharray:none;stroke-opacity:1"
       transform="matrix(1.3333333,0,0,-1.3333333,94.488,330.70933)" />
    <path
       id="path11"
       d="m 73.36272,184.29399 c 0,1.37 -1.11058,2.48058 -2.48058,2.48058 -1.37001,0 -2.48059,-1.11058 -2.48059,-2.48058 0,-1.37001 1.11058,-2.48059 2.48059,-2.48059 1.37,0 2.48058,1.11058 2.48058,2.48059 z"
       style="fill:#ffffff;fill-opacity:1;fill-rule:nonzero;stroke:#ffffff;stroke-width:0.3985;stroke-linecap:butt;stroke-linejoin:miter;stroke-miterlimit:10;stroke-dasharray:none;stroke-opacity:1"
       transform="matrix(1.3333333,0,0,-1.3333333,94.488,330.70933)" />
    <g
       id="g11"
       aria-label="P&#10;1"
       transform="matrix(1.3333333,0,0,1.3333333,212.59067,401.18533)">
      <path
         id="path12"
         d="m 3.0228203,-3.1536484 h 1.6875 c 1.4179688,0 2.8007813,-1.03125 2.8007813,-2.1445313 0,-0.7734375 -0.65625,-1.5117187 -1.96875,-1.5117187 H 2.3196953 c -0.1875,0 -0.2929687,0 -0.2929687,0.1992187 0,0.1171875 0.082031,0.1171875 0.28125,0.1171875 0.1289062,0 0.3164062,0.011719 0.4335937,0.011719 0.1523438,0.023437 0.2109375,0.058594 0.2109375,0.1640625 0,0.035156 0,0.070312 -0.035156,0.1875 l -1.3359375,5.35546871 c -0.09375,0.38671875 -0.1171875,0.46875 -0.90234379,0.46875 -0.17578125,0 -0.28125,0 -0.28125,0.1875 0,0.1171875 0.1171875,0.1171875 0.15234375,0.1171875 0.28125,0 0.98437504,-0.03515625 1.26562504,-0.03515625 0.2109375,0 0.421875,0.01171875 0.6328125,0.01171875 0.2226562,0 0.4453125,0.0234375 0.6445312,0.0234375 0.070312,0 0.1992188,0 0.1992188,-0.19921875 0,-0.10546875 -0.082031,-0.10546875 -0.2695313,-0.10546875 -0.375,0 -0.65625,0 -0.65625,-0.1875 0,-0.0585938 0.023437,-0.10546875 0.035156,-0.1640625 z m 0.7148438,-2.9648438 c 0.082031,-0.3515625 0.1054687,-0.375 0.5390625,-0.375 h 0.9492187 c 0.8320313,0 1.359375,0.2695313 1.359375,0.9492188 0,0.3984375 -0.1992187,1.2539062 -0.5859375,1.6054687 -0.5039062,0.4453125 -1.1015625,0.5273438 -1.5351562,0.5273438 h -1.40625 z m 0,0"
         style="fill:#ffffff;fill-opacity:1;fill-rule:nonzero;stroke:none" />
      <path
         id="path13"
         d="m 8.7269219,-2.9368516 c 0,-0.1875 -0.011719,-0.1992187 -0.2109375,-0.1992187 -0.4453125,0.4335937 -1.078125,0.4453125 -1.359375,0.4453125 v 0.2460937 c 0.1640625,0 0.6210937,0 1.0078125,-0.1875 v 3.55078129 c 0,0.23437501 0,0.32812501 -0.6914063,0.32812501 H 7.2034844 v 0.2460937 c 0.1289062,-0.011719 0.984375,-0.023437 1.2421875,-0.023437 0.2109375,0 1.0898437,0.011719 1.2421875,0.023437 V 1.2467422 H 9.4300469 c -0.703125,0 -0.703125,-0.09375 -0.703125,-0.32812501 z m 0,0"
         style="fill:#ffffff;fill-opacity:1;fill-rule:nonzero;stroke:none" />
    </g>
    <g
       id="g13"
       aria-label="P&#10;2"
       transform="matrix(1.3333333,0,0,1.3333333,312.768,145.23467)">
      <path
         id="path14"
         d="m 3.0245859,-3.1525625 h 1.6875 c 1.4179688,0 2.8007813,-1.03125 2.8007813,-2.1445312 0,-0.7734375 -0.65625,-1.5117188 -1.96875,-1.5117188 H 2.3214609 c -0.1875,0 -0.2929687,0 -0.2929687,0.1992188 0,0.1171875 0.082031,0.1171875 0.28125,0.1171875 0.1289062,0 0.3164062,0.011719 0.4335937,0.011719 0.1523438,0.023437 0.2109375,0.058594 0.2109375,0.1640625 0,0.035156 0,0.070312 -0.035156,0.1875 l -1.3359375,5.35546875 c -0.09375,0.38671875 -0.1171875,0.46875 -0.90234376,0.46875 -0.17578125,0 -0.28125,0 -0.28125,0.1875 0,0.1171875 0.1171875,0.1171875 0.15234375,0.1171875 0.28125,0 0.98437501,-0.03515625 1.26562501,-0.03515625 0.2109375,0 0.421875,0.01171875 0.6328125,0.01171875 0.2226562,0 0.4453125,0.0234375 0.6445312,0.0234375 0.070312,0 0.1992188,0 0.1992188,-0.19921875 0,-0.10546875 -0.082031,-0.10546875 -0.2695313,-0.10546875 -0.375,0 -0.65625,0 -0.65625,-0.1875 0,-0.0585938 0.023437,-0.10546875 0.035156,-0.1640625 z m 0.7148438,-2.9648437 c 0.082031,-0.3515625 0.1054687,-0.375 0.5390625,-0.375 h 0.9492187 c 0.8320313,0 1.359375,0.2695312 1.359375,0.9492187 0,0.3984375 -0.1992187,1.2539063 -0.5859375,1.6054688 -0.5039062,0.4453125 -1.1015625,0.5273437 -1.5351562,0.5273437 h -1.40625 z m 0,0"
         style="fill:#ffffff;fill-opacity:1;fill-rule:nonzero;stroke:none" />
      <path
         id="path15"
         d="m 9.9122813,0.22829688 h -0.234375 c -0.023437,0.15234375 -0.082031,0.5625 -0.1757813,0.6328125 -0.058594,0.0351563 -0.5976562,0.0351563 -0.6914062,0.0351563 H 7.5216563 c 0.7382812,-0.64453125 0.984375,-0.84375 1.3945312,-1.171875 0.515625,-0.41015625 0.9960938,-0.84374998 0.9960938,-1.49999998 0,-0.8437501 -0.7382813,-1.3593751 -1.6289063,-1.3593751 -0.8671875,0 -1.453125,0.609375 -1.453125,1.2421876 0,0.3632813 0.3046875,0.3984375 0.375,0.3984375 0.1640625,0 0.375,-0.1171875 0.375,-0.375 0,-0.1289062 -0.058594,-0.3632812 -0.421875,-0.3632812 0.2226563,-0.5039064 0.6914063,-0.65625 1.0195313,-0.65625 0.703125,0 1.0664062,0.5507811 1.0664062,1.1132812 0,0.609375 -0.4335937,1.08984373 -0.65625,1.33593748 l -1.6875,1.66406252 C 6.83025,1.2829844 6.83025,1.2947031 6.83025,1.4939219 h 2.8828125 z m 0,0"
         style="fill:#ffffff;fill-opacity:1;fill-rule:nonzero;stroke:none" />
    </g>
    <g
       id="g15"
       aria-label="P&#10;3"
       transform="matrix(1.3333333,0,0,1.3333333,181.752,76.412)">
      <path
         id="path16"
         d="m 3.0248672,-3.1537266 h 1.6875 c 1.4179687,0 2.8007812,-1.03125 2.8007812,-2.1445312 0,-0.7734375 -0.65625,-1.5117188 -1.96875,-1.5117188 H 2.3217422 c -0.1875,0 -0.2929688,0 -0.2929688,0.1992188 0,0.1171875 0.082031,0.1171875 0.28125,0.1171875 0.1289063,0 0.3164063,0.011719 0.4335938,0.011719 0.1523437,0.023437 0.2109375,0.058594 0.2109375,0.1640625 0,0.035156 0,0.070312 -0.035156,0.1875 l -1.3359375,5.35546879 c -0.09375,0.38671875 -0.1171875,0.46875 -0.90234371,0.46875 -0.17578125,0 -0.28125,0 -0.28125,0.1875 0,0.1171875 0.1171875,0.1171875 0.15234375,0.1171875 0.28125,0 0.98437496,-0.03515625 1.26562496,-0.03515625 0.2109375,0 0.421875,0.01171875 0.6328125,0.01171875 0.2226563,0 0.4453125,0.0234375 0.6445313,0.0234375 0.070312,0 0.1992187,0 0.1992187,-0.19921875 0,-0.10546875 -0.082031,-0.10546875 -0.2695312,-0.10546875 -0.375,0 -0.65625,0 -0.65625,-0.1875 0,-0.0585937 0.023437,-0.10546875 0.035156,-0.1640625 z m 0.7148437,-2.9648437 c 0.082031,-0.3515625 0.1054688,-0.375 0.5390625,-0.375 h 0.9492188 c 0.8320312,0 1.359375,0.2695312 1.359375,0.9492187 0,0.3984375 -0.1992188,1.2539063 -0.5859375,1.6054688 -0.5039063,0.4453125 -1.1015625,0.5273437 -1.5351563,0.5273437 h -1.40625 z m 0,0"
         style="fill:#ffffff;fill-opacity:1;fill-rule:nonzero;stroke:none" />
      <path
         id="path17"
         d="m 8.295375,-0.83927344 c 0.5507812,0 0.9375,0.375 0.9375,1.125 0,0.86718754 -0.5039063,1.12500004 -0.9023438,1.12500004 -0.28125,0 -0.890625,-0.082031 -1.1835937,-0.49218754 0.328125,-0.0117188 0.3984375,-0.24609375 0.3984375,-0.38671875 0,-0.22265625 -0.1640625,-0.38671875 -0.3867188,-0.38671875 -0.1875,0 -0.3867187,0.1171875 -0.3867187,0.41015625 0,0.65624999 0.7265625,1.07812499 1.5703125,1.07812499 0.9726562,0 1.640625,-0.64453124 1.640625,-1.34765624 0,-0.5390625 -0.4453125,-1.08984375 -1.21875,-1.2421875 0.7382812,-0.26953126 0.9960937,-0.79687496 0.9960937,-1.21874996 0,-0.5507813 -0.6328125,-0.9609375 -1.40625,-0.9609375 -0.7734375,0 -1.359375,0.375 -1.359375,0.9375 0,0.234375 0.1523438,0.3632812 0.3632813,0.3632812 0.2109375,0 0.3515625,-0.1640625 0.3515625,-0.3515625 0,-0.1992187 -0.140625,-0.3515625 -0.3515625,-0.3632812 0.234375,-0.3046875 0.7148437,-0.3867188 0.9726562,-0.3867188 0.3164063,0 0.7617188,0.1523438 0.7617188,0.7617188 0,0.2929687 -0.1054688,0.609375 -0.28125,0.8320312 -0.234375,0.2578125 -0.421875,0.28125 -0.7734375,0.2929688 -0.1757813,0.023437 -0.1875,0.023437 -0.2226563,0.023437 -0.011719,0 -0.070312,0.011719 -0.070312,0.09375 0,0.09375 0.058594,0.09375 0.1757813,0.09375 z m 0,0"
         style="fill:#ffffff;fill-opacity:1;fill-rule:nonzero;stroke:none" />
    </g>
    <path
       id="path18"
       d="M 0,0 82.1981,-41.09961"
       style="fill:none;stroke:#ffffff;stroke-width:0.79701;stroke-linecap:butt;stroke-linejoin:miter;stroke-miterlimit:10;stroke-dasharray:none;stroke-opacity:1"
       transform="matrix(1.3333333,0,0,-1.3333333,94.488,330.70933)" />
    <path
       id="path19"
       d="M -1.55415,2.0722 C -1.42464,1.29512 0,0.1295 0.38852,0 0,-0.1295 -1.42464,-1.29512 -1.55415,-2.0722"
       style="fill:none;stroke:#ffffff;stroke-width:0.6376;stroke-linecap:round;stroke-linejoin:round;stroke-miterlimit:10;stroke-dasharray:none;stroke-opacity:1"
       transform="matrix(1.19248,0.59622667,0.59622667,-1.19248,204.08547,385.5088)" />
    <g
       id="g19"
       aria-label="z&#10;1"
       transform="matrix(1.3333333,0,0,1.3333333,145.124,352.11067)">
      <path
         id="path20"
         d="M 1.3249688,-0.833 C 1.8640313,-1.4072187 2.157,-1.6533125 2.5085625,-1.958 c 0,-0.011719 0.6210938,-0.5390625 0.984375,-0.9023437 0.9375,-0.9257813 1.1601563,-1.40625 1.1601563,-1.4414063 0,-0.1054687 -0.09375,-0.1054687 -0.1054688,-0.1054687 -0.070312,0 -0.1054687,0.023437 -0.1523437,0.1171875 -0.3046875,0.46875 -0.5039063,0.6328125 -0.75,0.6328125 -0.234375,0 -0.3515625,-0.1523438 -0.5039063,-0.3164063 -0.1875,-0.234375 -0.3632812,-0.4335937 -0.6914062,-0.4335937 -0.75,0 -1.2070313,0.9257812 -1.2070313,1.1367187 0,0.046875 0.035156,0.1171875 0.1171875,0.1171875 0.09375,0 0.1171875,-0.058594 0.140625,-0.1171875 0.1875,-0.4570312 0.7617188,-0.46875 0.84375,-0.46875 0.2109375,0 0.3984375,0.070312 0.6210938,0.1523438 0.3984375,0.1523437 0.515625,0.1523437 0.7734375,0.1523437 -0.3632813,0.421875 -1.1953125,1.1367188 -1.3828125,1.3007813 L 1.453875,-1.30175 c -0.6796875,0.66796875 -1.01953125,1.2421875 -1.01953125,1.3125 0,0.09375 0.09375,0.09375 0.1171875,0.09375 0.0820313,0 0.09375,-0.01171875 0.15234375,-0.12890625 0.234375,-0.33984375 0.5273438,-0.609375 0.8554688,-0.609375 0.2226562,0 0.328125,0.0820313 0.5742187,0.375 C 2.297625,-0.04784375 2.485125,0.1045 2.766375,0.1045 c 0.984375,0 1.5703125,-1.265625 1.5703125,-1.5351562 0,-0.046875 -0.046875,-0.09375 -0.1171875,-0.09375 -0.09375,0 -0.1171875,0.058594 -0.140625,0.1289062 -0.234375,0.64453125 -0.8671875,0.83203125 -1.1953125,0.83203125 -0.1992187,0 -0.3867187,-0.0585938 -0.5859375,-0.12890625 C 1.9577813,-0.82128125 1.8054375,-0.8564375 1.5945,-0.8564375 c -0.023437,0 -0.1757812,0 -0.2695312,0.0234375 z m 0,0"
         style="fill:#ffffff;fill-opacity:1;fill-rule:nonzero;stroke:none" />
      <path
         id="path21"
         d="m 6.9646172,-2.9365156 c 0,-0.1875 -0.011719,-0.1992188 -0.2109375,-0.1992188 -0.4453125,0.4335938 -1.078125,0.4453125 -1.359375,0.4453125 v 0.2460938 c 0.1640625,0 0.6210937,0 1.0078125,-0.1875 v 3.55078123 c 0,0.23437497 0,0.32812497 -0.6914063,0.32812497 H 5.4411797 v 0.2460938 c 0.1289062,-0.011719 0.984375,-0.023437 1.2421875,-0.023437 0.2109375,0 1.0898437,0.011719 1.2421875,0.023437 V 1.2470781 H 7.6677422 c -0.703125,0 -0.703125,-0.09375 -0.703125,-0.32812497 z m 0,0"
         style="fill:#ffffff;fill-opacity:1;fill-rule:nonzero;stroke:none" />
    </g>
    <path
       id="path22"
       d="M 0,0 153.57428,139.61317"
       style="fill:none;stroke:#ffffff;stroke-width:0.79701;stroke-linecap:butt;stroke-linejoin:miter;stroke-miterlimit:10;stroke-dasharray:none;stroke-opacity:1"
       transform="matrix(1.3333333,0,0,-1.3333333,94.488,330.70933)" />
    <path
       id="path23"
       d="M -1.55415,2.0722 C -1.42464,1.29512 0,0.1295 0.38852,0 0,-0.1295 -1.42464,-1.29512 -1.55415,-2.0722"
       style="fill:none;stroke:#ffffff;stroke-width:0.6376;stroke-linecap:round;stroke-linejoin:round;stroke-miterlimit:10;stroke-dasharray:none;stroke-opacity:1"
       transform="matrix(0.98653333,-0.89685333,-0.89685333,-0.98653333,299.25371,144.55845)" />
    <g
       id="g23"
       aria-label="z&#10;2"
       transform="matrix(1.3333333,0,0,1.3333333,196.15867,256.328)">
      <path
         id="path24"
         d="m 1.3253359,-0.8319375 c 0.5390625,-0.5742187 0.8320313,-0.8203125 1.1835938,-1.125 0,-0.011719 0.6210937,-0.5390625 0.984375,-0.9023437 0.9375,-0.9257813 1.1601562,-1.40625 1.1601562,-1.4414063 0,-0.1054687 -0.09375,-0.1054687 -0.1054687,-0.1054687 -0.070312,0 -0.1054688,0.023437 -0.1523438,0.1171875 -0.3046875,0.46875 -0.5039062,0.6328125 -0.75,0.6328125 -0.234375,0 -0.3515625,-0.1523438 -0.5039062,-0.3164063 -0.1875,-0.234375 -0.3632813,-0.4335937 -0.6914063,-0.4335937 -0.75,0 -1.2070312,0.9257812 -1.2070312,1.1367187 0,0.046875 0.035156,0.1171875 0.1171875,0.1171875 0.09375,0 0.1171875,-0.058594 0.140625,-0.1171875 0.1875,-0.4570312 0.7617187,-0.46875 0.84375,-0.46875 0.2109375,0 0.3984375,0.070312 0.6210937,0.1523438 C 3.3643984,-3.4335 3.4815859,-3.4335 3.7393984,-3.4335 3.3761172,-3.011625 2.5440859,-2.2967812 2.3565859,-2.1327187 l -0.9023437,0.8320312 c -0.67968751,0.66796875 -1.01953126,1.2421875 -1.01953126,1.3125 0,0.09375 0.09375,0.09375 0.1171875,0.09375 0.0820313,0 0.09375,-0.01171875 0.15234375,-0.12890625 0.234375,-0.33984375 0.52734371,-0.609375 0.85546871,-0.609375 0.2226563,0 0.328125,0.0820313 0.5742188,0.375 0.1640625,0.2109375 0.3515625,0.36328125 0.6328125,0.36328125 0.984375,0 1.5703125,-1.265625 1.5703125,-1.5351562 0,-0.046875 -0.046875,-0.09375 -0.1171875,-0.09375 -0.09375,0 -0.1171875,0.058594 -0.140625,0.1289062 -0.234375,0.64453125 -0.8671875,0.83203125 -1.1953125,0.83203125 -0.1992188,0 -0.3867188,-0.0585938 -0.5859375,-0.12890625 -0.3398438,-0.12890625 -0.4921875,-0.1640625 -0.703125,-0.1640625 -0.023437,0 -0.1757813,0 -0.2695313,0.0234375 z m 0,0"
         style="fill:#ffffff;fill-opacity:1;fill-rule:nonzero;stroke:none" />
      <path
         id="path25"
         d="m 8.1485781,0.22860938 h -0.234375 c -0.023437,0.15234375 -0.082031,0.5625 -0.1757812,0.6328125 -0.058594,0.0351563 -0.5976563,0.0351563 -0.6914063,0.0351563 H 5.7579531 c 0.7382813,-0.64453125 0.984375,-0.84375 1.3945313,-1.171875 0.515625,-0.41015625 0.9960937,-0.84375008 0.9960937,-1.50000008 0,-0.84375 -0.7382812,-1.359375 -1.6289062,-1.359375 -0.8671875,0 -1.453125,0.609375 -1.453125,1.2421875 0,0.3632813 0.3046875,0.3984375 0.375,0.3984375 0.1640625,0 0.375,-0.1171875 0.375,-0.375 0,-0.1289062 -0.058594,-0.3632812 -0.421875,-0.3632812 0.2226562,-0.5039063 0.6914062,-0.65625 1.0195312,-0.65625 0.703125,0 1.0664063,0.5507812 1.0664063,1.1132813 0,0.609375 -0.4335938,1.08984373 -0.65625,1.33593748 l -1.6875,1.66406242 c -0.070312,0.058594 -0.070312,0.070312 -0.070312,0.2695313 h 2.8828125 z m 0,0"
         style="fill:#ffffff;fill-opacity:1;fill-rule:nonzero;stroke:none" />
    </g>
    <path
       id="path26"
       d="M 0,0 69.7342,181.30914"
       style="fill:none;stroke:#ffffff;stroke-width:0.79701;stroke-linecap:butt;stroke-linejoin:miter;stroke-miterlimit:10;stroke-dasharray:none;stroke-opacity:1"
       transform="matrix(1.3333333,0,0,-1.3333333,94.488,330.70933)" />
    <path
       id="path27"
       d="M -1.55415,2.0722 C -1.42464,1.29512 0,0.1295 0.38852,0 0,-0.1295 -1.42464,-1.29512 -1.55415,-2.0722"
       style="fill:none;stroke:#ffffff;stroke-width:0.6376;stroke-linecap:round;stroke-linejoin:round;stroke-miterlimit:10;stroke-dasharray:none;stroke-opacity:1"
       transform="matrix(0.4786,-1.24444,-1.24444,-0.4786,187.46692,88.963813)" />
    <g
       id="g27"
       aria-label="z&#10;1&#10;+z&#10;2"
       transform="matrix(1.3333333,0,0,1.3333333,96.274667,191.828)">
      <path
         id="path28"
         d="m 1.3232969,-0.8319375 c 0.5390625,-0.5742187 0.8320312,-0.8203125 1.1835937,-1.125 0,-0.011719 0.6210938,-0.5390625 0.984375,-0.9023437 0.9375,-0.9257813 1.1601563,-1.40625 1.1601563,-1.4414063 0,-0.1054687 -0.09375,-0.1054687 -0.1054688,-0.1054687 -0.070312,0 -0.1054687,0.023437 -0.1523437,0.1171875 -0.3046875,0.46875 -0.5039063,0.6328125 -0.75,0.6328125 -0.234375,0 -0.3515625,-0.1523438 -0.5039063,-0.3164063 -0.1875,-0.234375 -0.3632812,-0.4335937 -0.6914062,-0.4335937 -0.75,0 -1.2070313,0.9257812 -1.2070313,1.1367187 0,0.046875 0.035156,0.1171875 0.1171875,0.1171875 0.09375,0 0.1171875,-0.058594 0.140625,-0.1171875 0.1875,-0.4570312 0.7617188,-0.46875 0.84375,-0.46875 0.2109375,0 0.3984375,0.070312 0.6210938,0.1523438 C 3.3623594,-3.4335 3.4795469,-3.4335 3.7373594,-3.4335 3.3740781,-3.011625 2.5420469,-2.2967812 2.3545469,-2.1327187 l -0.9023438,0.8320312 c -0.67968747,0.66796875 -1.01953122,1.2421875 -1.01953122,1.3125 0,0.09375 0.09375,0.09375 0.1171875,0.09375 0.0820313,0 0.09375,-0.01171875 0.15234375,-0.12890625 0.234375,-0.33984375 0.52734377,-0.609375 0.85546877,-0.609375 0.2226562,0 0.328125,0.0820313 0.5742187,0.375 0.1640625,0.2109375 0.3515625,0.36328125 0.6328125,0.36328125 0.984375,0 1.5703125,-1.265625 1.5703125,-1.5351562 0,-0.046875 -0.046875,-0.09375 -0.1171875,-0.09375 -0.09375,0 -0.1171875,0.058594 -0.140625,0.1289062 -0.234375,0.64453125 -0.8671875,0.83203125 -1.1953125,0.83203125 -0.1992187,0 -0.3867187,-0.0585938 -0.5859375,-0.12890625 -0.3398437,-0.12890625 -0.4921875,-0.1640625 -0.703125,-0.1640625 -0.023437,0 -0.1757812,0 -0.2695312,0.0234375 z m 0,0"
         style="fill:#ffffff;fill-opacity:1;fill-rule:nonzero;stroke:none" />
      <path
         id="path29"
         d="m 6.965875,-2.9354531 c 0,-0.1875 -0.011719,-0.1992188 -0.2109375,-0.1992188 -0.4453125,0.4335938 -1.078125,0.4453125 -1.359375,0.4453125 v 0.2460938 c 0.1640625,0 0.6210938,0 1.0078125,-0.1875 v 3.55078123 c 0,0.23437497 0,0.32812497 -0.6914062,0.32812497 H 5.4424375 v 0.2460938 c 0.1289063,-0.011719 0.984375,-0.023437 1.2421875,-0.023437 0.2109375,0 1.0898438,0.011719 1.2421875,0.023437 V 1.2481406 H 7.669 c -0.703125,0 -0.703125,-0.09375 -0.703125,-0.32812497 z m 0,0"
         style="fill:#ffffff;fill-opacity:1;fill-rule:nonzero;stroke:none" />
      <path
         id="path30"
         d="m 15.394586,-2.2967812 h 2.777344 c 0.140625,0 0.328125,0 0.328125,-0.1992188 0,-0.1992187 -0.1875,-0.1992187 -0.328125,-0.1992187 h -2.777344 v -2.7890625 c 0,-0.1289063 0,-0.328125 -0.199219,-0.328125 -0.199219,0 -0.199219,0.1992187 -0.199219,0.328125 v 2.7890625 h -2.789062 c -0.140625,0 -0.328125,0 -0.328125,0.1992187 0,0.1992188 0.1875,0.1992188 0.328125,0.1992188 h 2.789062 V 0.504 c 0,0.12890625 0,0.328125 0.199219,0.328125 0.199219,0 0.199219,-0.19921875 0.199219,-0.328125 z m 0,0"
         style="fill:#ffffff;fill-opacity:1;fill-rule:nonzero;stroke:none" />
      <path
         id="path31"
         d="m 22.601617,-0.8319375 c 0.539063,-0.5742187 0.832031,-0.8203125 1.183594,-1.125 0,-0.011719 0.621094,-0.5390625 0.984375,-0.9023437 0.9375,-0.9257813 1.160156,-1.40625 1.160156,-1.4414063 0,-0.1054687 -0.09375,-0.1054687 -0.105469,-0.1054687 -0.07031,0 -0.105468,0.023437 -0.152343,0.1171875 -0.304688,0.46875 -0.503907,0.6328125 -0.75,0.6328125 -0.234375,0 -0.351563,-0.1523438 -0.503907,-0.3164063 -0.1875,-0.234375 -0.363281,-0.4335937 -0.691406,-0.4335937 -0.75,0 -1.207031,0.9257812 -1.207031,1.1367187 0,0.046875 0.03516,0.1171875 0.117187,0.1171875 0.09375,0 0.117188,-0.058594 0.140625,-0.1171875 0.1875,-0.4570312 0.761719,-0.46875 0.84375,-0.46875 0.210938,0 0.398438,0.070312 0.621094,0.1523438 C 24.64068,-3.4335 24.757867,-3.4335 25.01568,-3.4335 c -0.363282,0.421875 -1.195313,1.1367188 -1.382813,1.3007813 l -0.902344,0.8320312 c -0.679687,0.66796875 -1.019531,1.2421875 -1.019531,1.3125 0,0.09375 0.09375,0.09375 0.117188,0.09375 0.08203,0 0.09375,-0.01171875 0.152343,-0.12890625 0.234375,-0.33984375 0.527344,-0.609375 0.855469,-0.609375 0.222656,0 0.328125,0.0820313 0.574219,0.375 0.164062,0.2109375 0.351562,0.36328125 0.632812,0.36328125 0.984375,0 1.570313,-1.265625 1.570313,-1.5351562 0,-0.046875 -0.04687,-0.09375 -0.117188,-0.09375 -0.09375,0 -0.117187,0.058594 -0.140625,0.1289062 -0.234375,0.64453125 -0.867187,0.83203125 -1.195312,0.83203125 -0.199219,0 -0.386719,-0.0585938 -0.585938,-0.12890625 -0.339843,-0.12890625 -0.492187,-0.1640625 -0.703125,-0.1640625 -0.02344,0 -0.175781,0 -0.269531,0.0234375 z m 0,0"
         style="fill:#ffffff;fill-opacity:1;fill-rule:nonzero;stroke:none" />
      <path
         id="path32"
         d="m 29.427789,0.22860938 h -0.234375 c -0.02344,0.15234375 -0.08203,0.5625 -0.175781,0.6328125 -0.05859,0.0351563 -0.597656,0.0351563 -0.691406,0.0351563 h -1.289063 c 0.738281,-0.64453125 0.984375,-0.84375 1.394531,-1.171875 0.515625,-0.41015625 0.996094,-0.84375008 0.996094,-1.50000008 0,-0.84375 -0.738281,-1.359375 -1.628906,-1.359375 -0.867188,0 -1.453125,0.609375 -1.453125,1.2421875 0,0.3632813 0.304687,0.3984375 0.375,0.3984375 0.164062,0 0.375,-0.1171875 0.375,-0.375 0,-0.1289062 -0.05859,-0.3632812 -0.421875,-0.3632812 0.222656,-0.5039063 0.691406,-0.65625 1.019531,-0.65625 0.703125,0 1.066406,0.5507812 1.066406,1.1132813 0,0.609375 -0.433593,1.08984373 -0.65625,1.33593748 l -1.6875,1.66406242 c -0.07031,0.058594 -0.07031,0.070312 -0.07031,0.2695313 h 2.882812 z m 0,0"
         style="fill:#ffffff;fill-opacity:1;fill-rule:nonzero;stroke:none" />
    </g>
    <path
       id="path33"
       d="M 85.05833,-42.52968 155.94052,141.7643"
       style="fill:none;stroke:#ffffff;stroke-width:0.3985;stroke-linecap:butt;stroke-linejoin:miter;stroke-miterlimit:10;stroke-dasharray:2.98883, 2.98883;stroke-dashoffset:0;stroke-opacity:1"
       transform="matrix(1.3333333,0,0,-1.3333333,94.488,330.70933)" />
    <path
       id="path34"
       d="M 155.94052,141.7643 70.88214,184.29399"
       style="fill:none;stroke:#ffffff;stroke-width:0.3985;stroke-linecap:butt;stroke-linejoin:miter;stroke-miterlimit:10;stroke-dasharray:2.98883, 2.98883;stroke-dashoffset:0;stroke-opacity:1"
       transform="matrix(1.3333333,0,0,-1.3333333,94.488,330.70933)" />
  </g>
</svg>
