<?xml version="1.0" encoding="UTF-8" standalone="no"?>
<!-- Created with Inkscape (http://www.inkscape.org/) -->

<svg
   version="1.1"
   id="svg1"
   width="529.13464"
   height="538.58264"
   viewBox="0 0 529.13464 538.58264"
   sodipodi:docname="12N_conjugates.pdf"
   xmlns:inkscape="http://www.inkscape.org/namespaces/inkscape"
   xmlns:sodipodi="http://sodipodi.sourceforge.net/DTD/sodipodi-0.dtd"
   xmlns="http://www.w3.org/2000/svg"
   xmlns:svg="http://www.w3.org/2000/svg">
  <defs
     id="defs1" />
  <sodipodi:namedview
     id="namedview1"
     pagecolor="#ffffff"
     bordercolor="#000000"
     borderopacity="0.25"
     inkscape:showpageshadow="2"
     inkscape:pageopacity="0.0"
     inkscape:pagecheckerboard="0"
     inkscape:deskcolor="#d1d1d1">
    <inkscape:page
       x="0"
       y="0"
       inkscape:label="1"
       id="page1"
       width="529.13464"
       height="538.58264"
       margin="0"
       bleed="0" />
  </sodipodi:namedview>
  <g
     id="g1"
     inkscape:groupmode="layer"
     inkscape:label="1">
    <path
       id="path1"
       d="M -148.82115,-191.34071 V 212.60106 H 248.03456 V -191.34071 Z"
       style="fill:#000000;fill-opacity:0;fill-rule:nonzero;stroke:none"
       transform="matrix(1.3333333,0,0,-1.3333333,198.42533,283.46533)" />
    <path
       id="path2"
       d="M -106.3005,0 H 212.14278"
       style="fill:none;stroke:#ffffff;stroke-width:0.3985;stroke-linecap:butt;stroke-linejoin:miter;stroke-miterlimit:10;stroke-dasharray:none;stroke-opacity:1"
       transform="matrix(1.3333333,0,0,-1.3333333,198.42533,283.46533)" />
    <path
       id="path3"
       d="M -1.19551,1.59401 C -1.09587,0.99626 0,0.09961 0.29886,0 0,-0.09961 -1.09587,-0.99626 -1.19551,-1.59401"
       style="fill:none;stroke:#ffffff;stroke-width:0.31879;stroke-linecap:round;stroke-linejoin:round;stroke-miterlimit:10;stroke-dasharray:none;stroke-opacity:1"
       transform="matrix(1.3333333,0,0,-1.3333333,481.28237,283.46533)" />
    <path
       id="path4"
       d="m 2.2260859,-3.5156953 v -2.578125 c 0,-0.234375 0,-0.3515625 0.2226563,-0.3867188 0.1054687,-0.011719 0.3867187,-0.011719 0.5859375,-0.011719 0.9023437,0 2.015625,0.035156 2.015625,1.4765625 0,0.6914062 -0.234375,1.5 -1.7109375,1.5 z m 2.109375,0.1289062 c 0.9609375,-0.234375 1.7460938,-0.84375 1.7460938,-1.6289062 0,-0.9492188 -1.1367188,-1.7929688 -2.6015625,-1.7929688 H 0.35108594 v 0.3164063 h 0.234375 c 0.77343746,0 0.78515626,0.1054687 0.78515626,0.46875 v 5.24999999 c 0,0.3515625 -0.011719,0.46875 -0.78515626,0.46875 h -0.234375 V -7.03125e-5 C 0.70264844,-0.03522656 1.4174922,-0.03522656 1.8042109,-0.03522656 c 0.3867188,0 1.0898438,0 1.453125,0.0351562475 V -0.30475781 h -0.234375 c -0.7734375,0 -0.796875,-0.1171875 -0.796875,-0.46875 V -3.2930391 h 1.1484375 c 0.1640625,0 0.5742188,0 0.9257813,0.3398438 0.3867187,0.3515625 0.3867187,0.65625 0.3867187,1.3242187 0,0.65625004 0,1.05468754 0.3984375,1.42968754 0.4101563,0.36328125 0.9609375,0.421875 1.2539063,0.421875 0.7851562,0 0.9492187,-0.8203125 0.9492187,-1.1015625 0,-0.0585938 0,-0.16406254 -0.1289062,-0.16406254 -0.1054688,0 -0.1054688,0.0820313 -0.1171875,0.15234379 -0.058594,0.71484375 -0.4101563,0.8906249975 -0.65625,0.8906249975 -0.4921875,0 -0.5742188,-0.5039062475 -0.703125,-1.4296874875 l -0.140625,-0.796875 C 5.3667109,-2.8711641 4.8862422,-3.1992891 4.3354609,-3.3867891 Z m 4.1103516,0.8789063 c 0.058594,-1.4882813 0.9023438,-1.734375 1.2421875,-1.734375 1.019531,0 1.125,1.3476562 1.125,1.734375 z m -0.011719,0.2109375 h 2.7890625 c 0.210938,0 0.246094,0 0.246094,-0.2109375 0,-0.984375 -0.539062,-1.9570313 -1.7812503,-1.9570313 -1.1601562,0 -2.0742187,1.03125 -2.0742187,2.2734375 0,1.33593754 1.0429687,2.29687504 2.1914062,2.29687504 1.2187508,0 1.6640628,-1.1015625 1.6640628,-1.28906254 0,-0.1054687 -0.08203,-0.1171875 -0.128906,-0.1171875 -0.09375,0 -0.117188,0.058594 -0.128906,0.140625 -0.351563,1.01953129 -1.253907,1.01953129 -1.347657,1.01953129 -0.5039063,0 -0.9023438,-0.29296875 -1.125,-0.66796875 C 8.4340938,-1.2891328 8.4340938,-1.9453828 8.4340935,-2.2969453 Z m 0,0"
       style="fill:#ffffff;fill-opacity:1;fill-rule:nonzero;stroke:none"
       aria-label="Re"
       transform="matrix(1.3333333,0,0,1.3333333,486.58267,288.004)" />
    <path
       id="path5"
       d="M 0,-141.73404 V 176.70924"
       style="fill:none;stroke:#ffffff;stroke-width:0.3985;stroke-linecap:butt;stroke-linejoin:miter;stroke-miterlimit:10;stroke-dasharray:none;stroke-opacity:1"
       transform="matrix(1.3333333,0,0,-1.3333333,198.42533,283.46533)" />
    <path
       id="path6"
       d="M -1.19551,1.59401 C -1.09587,0.99626 0,0.09961 0.29886,0 0,-0.09961 -1.09587,-0.99626 -1.19551,-1.59401"
       style="fill:none;stroke:#ffffff;stroke-width:0.31879;stroke-linecap:round;stroke-linejoin:round;stroke-miterlimit:10;stroke-dasharray:none;stroke-opacity:1"
       transform="matrix(0,-1.3333333,-1.3333333,0,198.42533,47.853013)" />
    <path
       id="path7"
       d="m 2.2384219,-6.0243516 c 0,-0.3632812 0.035156,-0.46875 0.8203125,-0.46875 h 0.2578125 v -0.3164062 c -0.3515625,0.035156 -1.1367188,0.035156 -1.5117188,0.035156 -0.3867187,0 -1.17187497,0 -1.52343747,-0.035156 v 0.3164062 h 0.2578125 c 0.78515627,0 0.82031247,0.1054688 0.82031247,0.46875 v 5.25000004 c 0,0.3515625 -0.035156,0.46875 -0.82031247,0.46875 H 0.28139063 V -9.140625e-4 C 0.63295313,-0.03607031 1.4181094,-0.03607031 1.7931094,-0.03607031 c 0.3867187,0 1.171875,0 1.5234375,0.0351562475 V -0.30560156 H 3.0587344 c -0.7851563,0 -0.8203125,-0.1171875 -0.8203125,-0.46875 z m 2.4609375,2.6015625 v 2.66015629 c 0,0.45703125 -0.1171875,0.45703125 -0.7851563,0.45703125 v 0.3046874975 c 0.3515625,-0.0117187475 0.8554688,-0.0351562475 1.125,-0.0351562475 0.2578125,0 0.7851563,0.0234375 1.1132813,0.0351562475 V -0.30560156 c -0.65625,0 -0.7734375,0 -0.7734375,-0.45703125 V -2.5907578 c 0,-1.03125 0.7148437,-1.59375 1.3476562,-1.59375 0.6210938,0 0.7382813,0.5390625 0.7382813,1.1015625 v 2.32031249 c 0,0.45703125 -0.1171875,0.45703125 -0.7734375,0.45703125 v 0.3046874975 c 0.3398437,-0.0117187475 0.8554687,-0.0351562475 1.125,-0.0351562475 0.2578125,0 0.7734375,0.0234375 1.1132812,0.0351562475 V -0.30560156 c -0.6679687,0 -0.7851562,0 -0.7851562,-0.45703125 V -2.5907578 c 0,-1.03125 0.7148437,-1.59375 1.3476562,-1.59375 0.6328129,0 0.7382809,0.5390625 0.7382809,1.1015625 v 2.32031249 c 0,0.45703125 -0.105468,0.45703125 -0.7734371,0.45703125 V -9.140625e-4 C 9.8087344,-0.01263281 10.312641,-0.03607031 10.582172,-0.03607031 c 0.257812,0 0.773437,0.0234375 1.113281,0.0351562475 V -0.30560156 c -0.515625,0 -0.761719,0 -0.773437,-0.3046875 V -2.5087266 c 0,-0.8554687 0,-1.171875 -0.316407,-1.5234375 -0.128906,-0.1757812 -0.46875,-0.375 -1.0429684,-0.375 -0.8320312,0 -1.2773437,0.5976563 -1.4414062,0.984375 -0.140625,-0.8671875 -0.8789063,-0.984375 -1.3242188,-0.984375 -0.7265625,0 -1.1953125,0.4335938 -1.4765625,1.0546875 v -1.0546875 l -1.40625,0.1171875 v 0.3046875 c 0.703125,0 0.7851563,0.070312 0.7851563,0.5625 z m 0,0"
       style="fill:#ffffff;fill-opacity:1;fill-rule:nonzero;stroke:none"
       aria-label="Im"
       transform="matrix(1.3333333,0,0,1.3333333,190.492,42.552)" />
    <path
       id="path8"
       d="m 7.3709453,-4.347875 c 0,-1.59375 -1.0546875,-2.671875 -2.5429687,-2.671875 -2.1445313,0 -4.33593754,2.2617188 -4.33593754,4.5820313 0,1.6523437 1.11328124,2.6601562 2.54296874,2.6601562 2.109375,0 4.3359375,-2.1796875 4.3359375,-4.5703125 z m -4.2773437,4.3125 c -0.984375,0 -1.6757813,-0.80859375 -1.6757813,-2.1210937 0,-0.4453125 0.140625,-1.8984375 0.9023438,-3.0585938 0.6914062,-1.0429687 1.6640625,-1.5585937 2.4492187,-1.5585937 0.8203125,0 1.7109375,0.5625 1.7109375,2.0390625 0,0.7148437 -0.2695312,2.2734375 -1.2539062,3.5039062 -0.4804688,0.59765625 -1.2890625,1.1953125 -2.1328125,1.1953125 z m 0,0"
       style="fill:#ffffff;fill-opacity:1;fill-rule:nonzero;stroke:none"
       aria-label="O"
       transform="matrix(1.3333333,0,0,1.3333333,183.23067,297.23467)" />
    <path
       id="path9"
       d="m 144.24487,106.3232 c 0,1.36999 -1.11057,2.48057 -2.48057,2.48057 -1.37001,0 -2.4806,-1.11058 -2.4806,-2.48057 0,-1.37001 1.11059,-2.4806 2.4806,-2.4806 1.37,0 2.48057,1.11059 2.48057,2.4806 z"
       style="fill:#ffffff;fill-opacity:1;fill-rule:nonzero;stroke:#ffffff;stroke-width:0.3985;stroke-linecap:butt;stroke-linejoin:miter;stroke-miterlimit:10;stroke-dasharray:none;stroke-opacity:1"
       transform="matrix(1.3333333,0,0,-1.3333333,198.42533,283.46533)" />
    <path
       id="path10"
       d="m 144.24487,-106.3232 c 0,1.37001 -1.11057,2.4806 -2.48057,2.4806 -1.37001,0 -2.4806,-1.11059 -2.4806,-2.4806 0,-1.36999 1.11059,-2.48057 2.4806,-2.48057 1.37,0 2.48057,1.11058 2.48057,2.48057 z"
       style="fill:#ffffff;fill-opacity:1;fill-rule:nonzero;stroke:#ffffff;stroke-width:0.3985;stroke-linecap:butt;stroke-linejoin:miter;stroke-miterlimit:10;stroke-dasharray:none;stroke-opacity:1"
       transform="matrix(1.3333333,0,0,-1.3333333,198.42533,283.46533)" />
    <path
       id="path11"
       d="M 141.7643,106.3232 141.73404,0"
       style="fill:none;stroke:#ffffff;stroke-width:0.3985;stroke-linecap:butt;stroke-linejoin:miter;stroke-miterlimit:10;stroke-dasharray:2.98883, 2.98883;stroke-dashoffset:0;stroke-opacity:1"
       transform="matrix(1.3333333,0,0,-1.3333333,198.42533,283.46533)" />
    <path
       id="path12"
       d="m 0,106.3005 141.7643,0.0227"
       style="fill:none;stroke:#ffffff;stroke-width:0.3985;stroke-linecap:butt;stroke-linejoin:miter;stroke-miterlimit:10;stroke-dasharray:2.98883, 2.98883;stroke-dashoffset:0;stroke-opacity:1"
       transform="matrix(1.3333333,0,0,-1.3333333,198.42533,283.46533)" />
    <path
       id="path13"
       d="M 141.7643,-106.3232 141.73404,0"
       style="fill:none;stroke:#ffffff;stroke-width:0.3985;stroke-linecap:butt;stroke-linejoin:miter;stroke-miterlimit:10;stroke-dasharray:2.98883, 2.98883;stroke-dashoffset:0;stroke-opacity:1"
       transform="matrix(1.3333333,0,0,-1.3333333,198.42533,283.46533)" />
    <path
       id="path14"
       d="m 0,-106.3005 141.7643,-0.0227"
       style="fill:none;stroke:#ffffff;stroke-width:0.3985;stroke-linecap:butt;stroke-linejoin:miter;stroke-miterlimit:10;stroke-dasharray:2.98883, 2.98883;stroke-dashoffset:0;stroke-opacity:1"
       transform="matrix(1.3333333,0,0,-1.3333333,198.42533,283.46533)" />
    <path
       id="path15"
       d="m 3.328375,-3.0125312 c 0.058594,-0.2578125 0.2929687,-1.171875 0.984375,-1.171875 0.046875,0 0.2929687,0 0.5039062,0.1289062 -0.28125,0.046875 -0.4804687,0.3046875 -0.4804687,0.5390625 0,0.1640625 0.1054687,0.3515625 0.375,0.3515625 0.2226562,0 0.5390625,-0.1875 0.5390625,-0.5859375 0,-0.515625 -0.5859375,-0.65625 -0.9257813,-0.65625 -0.5742187,0 -0.9257812,0.5273438 -1.0429687,0.7617188 -0.2578125,-0.65625 -0.7851563,-0.7617188 -1.078125,-0.7617188 -1.0429688,0 -1.60546875,1.2890625 -1.60546875,1.5351563 0,0.1054687 0.10546875,0.1054687 0.1171875,0.1054687 0.0820313,0 0.1171875,-0.023437 0.12890625,-0.1171875 0.3398437,-1.0546875 0.9960937,-1.3007812 1.3359375,-1.3007812 0.1875,0 0.5390625,0.09375 0.5390625,0.6679687 0,0.3046875 -0.1640625,0.9726563 -0.5390625,2.3671875 -0.1523438,0.62109375 -0.5039063,1.04296875 -0.9492188,1.04296875 -0.058594,0 -0.28124995,0 -0.49218745,-0.12890625 C 0.984625,-0.29378125 1.2072812,-0.50471875 1.2072812,-0.77425 c 0,-0.2695312 -0.2226562,-0.3515625 -0.37499995,-0.3515625 -0.29296875,0 -0.5390625,0.2578125 -0.5390625,0.57421875 0,0.45703125 0.4921875,0.65625 0.93749995,0.65625 0.65625,0 1.0078125,-0.69140625 1.0429688,-0.75 0.1171875,0.36328125 0.4804687,0.75 1.078125,0.75 1.0195312,0 1.59375,-1.27734375 1.59375,-1.53515625 0,-0.09375 -0.09375,-0.09375 -0.1289063,-0.09375 -0.082031,0 -0.1054687,0.035156 -0.1289062,0.1054688 -0.328125,1.0664062 -0.9960938,1.31249995 -1.3242188,1.31249995 -0.3867187,0 -0.5390625,-0.328125 -0.5390625,-0.65625 0,-0.22265625 0.058594,-0.44531245 0.1640625,-0.87890625 z m 0,0"
       style="fill:#ffffff;fill-opacity:1;fill-rule:nonzero;stroke:none"
       aria-label="x"
       transform="matrix(1.3333333,0,0,1.3333333,395.87467,297.65733)" />
    <path
       id="path16"
       d="m 4.8394844,-3.7972891 c 0.046875,-0.140625 0.046875,-0.1523437 0.046875,-0.2226562 0,-0.1875 -0.140625,-0.2695313 -0.2929688,-0.2695313 -0.1054687,0 -0.2578125,0.058594 -0.3515625,0.1992188 -0.023437,0.058594 -0.09375,0.3632812 -0.140625,0.5390625 -0.070312,0.2578125 -0.140625,0.5273437 -0.1992187,0.796875 l -0.4453125,1.79296874 c -0.035156,0.15234375 -0.46875,0.85546875 -1.125,0.85546875 -0.5039063,0 -0.6210938,-0.4453125 -0.6210938,-0.80859375 0,-0.45703124 0.1757813,-1.07812504 0.515625,-1.95703124 0.1523438,-0.4101563 0.1992188,-0.515625 0.1992188,-0.7148438 0,-0.4453125 -0.328125,-0.8203125 -0.8203125,-0.8203125 -0.94921877,0 -1.31250002,1.453125 -1.31250002,1.5351563 0,0.1054687 0.09375,0.1054687 0.1171875,0.1054687 0.09375,0 0.10546875,-0.023437 0.15234375,-0.1875 0.26953125,-0.9375 0.66796877,-1.2304687 1.00781247,-1.2304687 0.082031,0 0.2578125,0 0.2578125,0.3164062 0,0.2460938 -0.1054687,0.515625 -0.1757812,0.703125 -0.3984375,1.0546875 -0.5742188,1.6171875 -0.5742188,2.0859375 0,0.89062504 0.6210938,1.18359379 1.21875,1.18359379 0.3867188,0 0.7265625,-0.1640625 0.9960938,-0.4453125 -0.1289063,0.515625 -0.2460938,1.0078125 -0.6445313,1.53515621 -0.2578125,0.3398438 -0.6328125,0.6328125 -1.0898437,0.6328125 -0.140625,0 -0.59765627,-0.035156 -0.76171877,-0.421875 0.1640625,0 0.29296877,0 0.43359377,-0.1171875 0.09375,-0.09375 0.1992187,-0.2226562 0.1992187,-0.41015621 0,-0.31640625 -0.2695312,-0.3515625 -0.375,-0.3515625 -0.22265622,0 -0.55078122,0.1640625 -0.55078122,0.64453121 0,0.5039063 0.43359375,0.8671875 1.05468752,0.8671875 1.0195312,0 2.0507812,-0.9023437 2.3320312,-2.02734371 z m 0,0"
       style="fill:#ffffff;fill-opacity:1;fill-rule:nonzero;stroke:none"
       aria-label="y"
       transform="matrix(1.3333333,0,0,1.3333333,186.74267,143.30133)" />
    <g
       id="g16"
       aria-label="−y"
       transform="matrix(1.3333333,0,0,1.3333333,176.412,427.78)">
      <path
         id="path17"
         d="m 6.5611172,-2.2959375 c 0.1757812,0 0.3515625,0 0.3515625,-0.1992187 0,-0.1992188 -0.1757813,-0.1992188 -0.3515625,-0.1992188 h -5.390625 c -0.1640625,0 -0.33984376,0 -0.33984376,0.1992188 0,0.1992187 0.17578126,0.1992187 0.33984376,0.1992187 z m 0,0"
         style="fill:#ffffff;fill-opacity:1;fill-rule:nonzero;stroke:none" />
      <path
         id="path18"
         d="m 12.587484,-3.7959375 c 0.04687,-0.140625 0.04687,-0.1523437 0.04687,-0.2226562 0,-0.1875 -0.140625,-0.2695313 -0.292968,-0.2695313 -0.105469,0 -0.257813,0.058594 -0.351563,0.1992188 -0.02344,0.058594 -0.09375,0.3632812 -0.140625,0.5390625 -0.07031,0.2578125 -0.140625,0.5273437 -0.199219,0.796875 L 11.204672,-0.96 c -0.03516,0.15234375 -0.46875,0.85546875 -1.125,0.85546875 -0.5039064,0 -0.6210939,-0.4453125 -0.6210939,-0.80859375 0,-0.4570312 0.1757813,-1.078125 0.515625,-1.9570312 0.1523439,-0.4101563 0.1992189,-0.515625 0.1992189,-0.7148438 0,-0.4453125 -0.3281251,-0.8203125 -0.8203126,-0.8203125 -0.9492188,0 -1.3125,1.453125 -1.3125,1.5351563 0,0.1054687 0.09375,0.1054687 0.1171875,0.1054687 0.09375,0 0.1054687,-0.023437 0.1523437,-0.1875 0.2695313,-0.9375 0.6679688,-1.2304687 1.0078125,-1.2304687 0.082031,0 0.2578125,0 0.2578125,0.3164062 0,0.2460938 -0.1054687,0.515625 -0.1757812,0.703125 -0.3984375,1.0546875 -0.5742188,1.6171875 -0.5742188,2.0859375 0,0.890625 0.6210938,1.18359375 1.2187504,1.18359375 0.386718,0 0.726562,-0.1640625 0.996093,-0.4453125 -0.128906,0.515625 -0.246093,1.0078125 -0.644531,1.53515625 -0.257812,0.3398438 -0.6328124,0.6328125 -1.0898436,0.6328125 -0.140625,0 -0.5976563,-0.035156 -0.7617188,-0.421875 0.1640625,0 0.2929688,0 0.4335938,-0.1171875 0.09375,-0.09375 0.1992187,-0.2226562 0.1992187,-0.41015625 0,-0.31640625 -0.2695312,-0.3515625 -0.375,-0.3515625 -0.2226562,0 -0.5507812,0.1640625 -0.5507812,0.64453125 0,0.5039063 0.4335937,0.8671875 1.0546875,0.8671875 1.0195316,0 2.0507816,-0.9023437 2.3320316,-2.02734375 z m 0,0"
         style="fill:#ffffff;fill-opacity:1;fill-rule:nonzero;stroke:none" />
    </g>
    <g
       id="g18"
       aria-label="z=x+yi"
       transform="matrix(1.3333333,0,0,1.3333333,399.69467,126.868)">
      <path
         id="path19"
         d="M 1.3247031,-0.83264062 C 1.8637656,-1.4068594 2.1567344,-1.6529531 2.5082969,-1.9576406 c 0,-0.011719 0.6210937,-0.5390625 0.984375,-0.9023438 0.9375,-0.9257812 1.1601562,-1.40625 1.1601562,-1.4414062 0,-0.1054688 -0.09375,-0.1054688 -0.1054687,-0.1054688 -0.070312,0 -0.1054688,0.023437 -0.1523438,0.1171875 -0.3046875,0.46875 -0.5039062,0.6328125 -0.75,0.6328125 -0.234375,0 -0.3515625,-0.1523437 -0.5039062,-0.3164062 -0.1875,-0.234375 -0.3632813,-0.4335938 -0.6914063,-0.4335938 -0.75,0 -1.2070312,0.9257813 -1.2070312,1.1367188 0,0.046875 0.035156,0.1171875 0.1171875,0.1171875 0.09375,0 0.1171875,-0.058594 0.140625,-0.1171875 0.1875,-0.4570313 0.7617187,-0.46875 0.84375,-0.46875 0.2109375,0 0.3984375,0.070312 0.6210937,0.1523437 0.3984375,0.1523438 0.515625,0.1523438 0.7734375,0.1523438 -0.3632812,0.421875 -1.1953125,1.1367187 -1.3828125,1.3007812 l -0.9023437,0.8320313 c -0.67968752,0.66796873 -1.01953127,1.24218748 -1.01953127,1.31249998 0,0.09375 0.09375,0.09375 0.1171875,0.09375 0.0820313,0 0.09375,-0.01171875 0.15234375,-0.12890625 0.234375,-0.33984375 0.52734372,-0.609375 0.85546872,-0.609375 0.2226563,0 0.328125,0.0820313 0.5742188,0.375 0.1640625,0.2109375 0.3515625,0.36328125 0.6328125,0.36328125 0.984375,0 1.5703125,-1.26562498 1.5703125,-1.53515628 0,-0.046875 -0.046875,-0.09375 -0.1171875,-0.09375 -0.09375,0 -0.1171875,0.058594 -0.140625,0.1289063 -0.234375,0.64453123 -0.8671875,0.83203123 -1.1953125,0.83203123 -0.1992188,0 -0.3867188,-0.0585938 -0.5859375,-0.12890625 -0.3398438,-0.12890625 -0.4921875,-0.1640625 -0.703125,-0.1640625 -0.023437,0 -0.1757813,0 -0.2695313,0.0234375 z m 0,0"
         style="fill:#ffffff;fill-opacity:1;fill-rule:nonzero;stroke:none" />
      <path
         id="path20"
         d="m 14.684078,-3.2584219 c 0.152344,0 0.339844,0 0.339844,-0.1992187 0,-0.1992188 -0.1875,-0.1992188 -0.328125,-0.1992188 H 8.7309531 c -0.140625,0 -0.328125,0 -0.328125,0.1992188 0,0.1992187 0.1875,0.1992187 0.3398438,0.1992187 z m 0.01172,1.9335938 c 0.140625,0 0.328125,0 0.328125,-0.1992188 0,-0.1992187 -0.1875,-0.1992187 -0.339844,-0.1992187 H 8.7426719 c -0.1523438,0 -0.3398438,0 -0.3398438,0.1992187 0,0.1992188 0.1875,0.1992188 0.328125,0.1992188 z m 0,0"
         style="fill:#ffffff;fill-opacity:1;fill-rule:nonzero;stroke:none" />
      <path
         id="path21"
         d="m 21.677242,-3.0123281 c 0.05859,-0.2578125 0.292969,-1.171875 0.984375,-1.171875 0.04687,0 0.292969,0 0.503906,0.1289062 -0.28125,0.046875 -0.480468,0.3046875 -0.480468,0.5390625 0,0.1640625 0.105468,0.3515625 0.375,0.3515625 0.222656,0 0.539062,-0.1875 0.539062,-0.5859375 0,-0.515625 -0.585937,-0.65625 -0.925781,-0.65625 -0.574219,0 -0.925781,0.5273438 -1.042969,0.7617188 -0.257812,-0.65625 -0.785156,-0.7617188 -1.078125,-0.7617188 -1.042969,0 -1.605469,1.2890625 -1.605469,1.5351563 0,0.1054687 0.105469,0.1054687 0.117188,0.1054687 0.08203,0 0.117187,-0.023437 0.128906,-0.1171875 0.339844,-1.0546875 0.996094,-1.3007812 1.335938,-1.3007812 0.1875,0 0.539062,0.09375 0.539062,0.6679687 0,0.3046875 -0.164062,0.9726563 -0.539062,2.3671875 -0.152344,0.62109378 -0.503907,1.04296878 -0.949219,1.04296878 -0.05859,0 -0.28125,0 -0.492188,-0.12890625 0.246094,-0.0585938 0.46875,-0.26953125 0.46875,-0.5390625 0,-0.26953123 -0.222656,-0.35156253 -0.375,-0.35156253 -0.292968,0 -0.539062,0.25781253 -0.539062,0.57421878 0,0.45703125 0.492187,0.65625 0.9375,0.65625 0.65625,0 1.007812,-0.69140625 1.042969,-0.75 0.117187,0.36328125 0.480468,0.75 1.078125,0.75 1.019531,0 1.59375,-1.27734378 1.59375,-1.53515628 0,-0.09375 -0.09375,-0.09375 -0.128907,-0.09375 -0.08203,0 -0.105468,0.035156 -0.128906,0.1054688 -0.328125,1.06640623 -0.996094,1.31249998 -1.324219,1.31249998 -0.386718,0 -0.539062,-0.328125 -0.539062,-0.65625 0,-0.22265625 0.05859,-0.44531248 0.164062,-0.87890628 z m 0,0"
         style="fill:#ffffff;fill-opacity:1;fill-rule:nonzero;stroke:none" />
      <path
         id="path22"
         d="m 30.343258,-2.2974844 h 2.777344 c 0.140625,0 0.328125,0 0.328125,-0.1992187 0,-0.1992188 -0.1875,-0.1992188 -0.328125,-0.1992188 h -2.777344 v -2.7890625 c 0,-0.1289062 0,-0.328125 -0.199219,-0.328125 -0.199219,0 -0.199219,0.1992188 -0.199219,0.328125 v 2.7890625 h -2.789062 c -0.140625,0 -0.328125,0 -0.328125,0.1992188 0,0.1992187 0.1875,0.1992187 0.328125,0.1992187 h 2.789062 v 2.80078128 c 0,0.12890625 0,0.328125 0.199219,0.328125 0.199219,0 0.199219,-0.19921875 0.199219,-0.328125 z m 0,0"
         style="fill:#ffffff;fill-opacity:1;fill-rule:nonzero;stroke:none" />
      <path
         id="path23"
         d="m 41.065914,-3.7974844 c 0.04687,-0.140625 0.04687,-0.1523437 0.04687,-0.2226562 0,-0.1875 -0.140625,-0.2695313 -0.292969,-0.2695313 -0.105468,0 -0.257812,0.058594 -0.351562,0.1992188 -0.02344,0.058594 -0.09375,0.3632812 -0.140625,0.5390625 -0.07031,0.2578125 -0.140625,0.5273437 -0.199219,0.796875 l -0.445312,1.79296873 c -0.03516,0.15234375 -0.46875,0.85546875 -1.125,0.85546875 -0.503907,0 -0.621094,-0.4453125 -0.621094,-0.80859375 0,-0.45703123 0.175781,-1.07812503 0.515625,-1.95703123 0.152344,-0.4101563 0.199219,-0.515625 0.199219,-0.7148438 0,-0.4453125 -0.328125,-0.8203125 -0.820313,-0.8203125 -0.949219,0 -1.3125,1.453125 -1.3125,1.5351563 0,0.1054687 0.09375,0.1054687 0.117188,0.1054687 0.09375,0 0.105468,-0.023437 0.152343,-0.1875 0.269532,-0.9375 0.667969,-1.2304687 1.007813,-1.2304687 0.08203,0 0.257812,0 0.257812,0.3164062 0,0.2460938 -0.105468,0.515625 -0.175781,0.703125 -0.398437,1.0546875 -0.574219,1.6171875 -0.574219,2.0859375 0,0.89062503 0.621094,1.18359378 1.21875,1.18359378 0.386719,0 0.726563,-0.1640625 0.996094,-0.4453125 -0.128906,0.515625 -0.246094,1.0078125 -0.644531,1.53515622 -0.257813,0.3398438 -0.632813,0.6328125 -1.089844,0.6328125 -0.140625,0 -0.597656,-0.035156 -0.761719,-0.421875 0.164063,0 0.292969,0 0.433594,-0.1171875 0.09375,-0.09375 0.199219,-0.2226562 0.199219,-0.41015622 0,-0.31640625 -0.269531,-0.3515625 -0.375,-0.3515625 -0.222656,0 -0.550781,0.1640625 -0.550781,0.64453122 0,0.5039063 0.433593,0.8671875 1.054687,0.8671875 1.019531,0 2.050781,-0.9023437 2.332031,-2.02734372 z m 3.228516,-2.4257812 c 0,-0.1992188 -0.128907,-0.3632813 -0.363282,-0.3632813 -0.269531,0 -0.539062,0.2578125 -0.539062,0.5273438 0,0.1875 0.140625,0.3632812 0.375,0.3632812 0.234375,0 0.527344,-0.234375 0.527344,-0.5273437 z m -0.75,3.7382812 c 0.117187,-0.28125 0.117187,-0.3046875 0.222656,-0.5742187 0.07031,-0.1992188 0.128906,-0.3398438 0.128906,-0.5273438 0,-0.4453125 -0.328125,-0.8203125 -0.820312,-0.8203125 -0.9375,0 -1.3125,1.453125 -1.3125,1.5351563 0,0.1054687 0.09375,0.1054687 0.117187,0.1054687 0.09375,0 0.105469,-0.023437 0.152344,-0.1875 0.269531,-0.9375 0.667969,-1.2304687 1.007812,-1.2304687 0.08203,0 0.257813,0 0.257813,0.3164062 0,0.2109375 -0.07031,0.421875 -0.117188,0.515625 -0.08203,0.2578125 -0.527343,1.4179688 -0.679687,1.8515625 -0.105469,0.2578125 -0.234375,0.58593753 -0.234375,0.79687503 0,0.46875 0.339844,0.80859375 0.820312,0.80859375 0.9375,0 1.300782,-1.44140628 1.300782,-1.53515628 0,-0.09375 -0.09375,-0.09375 -0.117188,-0.09375 -0.105469,0 -0.105469,0.023437 -0.152344,0.1757813 -0.175781,0.63281248 -0.503906,1.24218748 -1.019531,1.24218748 -0.164062,0 -0.234375,-0.10546875 -0.234375,-0.328125 0,-0.2578125 0.05859,-0.3984375 0.292969,-0.99609378 z m 0,0"
         style="fill:#ffffff;fill-opacity:1;fill-rule:nonzero;stroke:none" />
    </g>
    <g
       id="g23"
       aria-label="¯z=x−yi"
       transform="matrix(1.3333333,0,0,1.3333333,400.492,446.24)">
      <path
         id="path24"
         d="M 4.2892031,-5.5676953 V -5.8841016 H 0.69154687 v 0.3164063 z m 0,0"
         style="fill:#ffffff;fill-opacity:1;fill-rule:nonzero;stroke:none" />
      <path
         id="path25"
         d="M 0.72670312,-0.83332031 C 1.2657656,-1.4075391 1.5587344,-1.6536328 1.9102969,-1.9583203 c 0,-0.011719 0.6210937,-0.5390625 0.984375,-0.9023438 0.9375,-0.9257812 1.1601562,-1.40625 1.1601562,-1.4414062 0,-0.1054688 -0.09375,-0.1054688 -0.1054687,-0.1054688 -0.070312,0 -0.1054688,0.023437 -0.1523438,0.1171875 -0.3046875,0.46875 -0.5039062,0.6328125 -0.75,0.6328125 -0.234375,0 -0.3515625,-0.1523437 -0.5039062,-0.3164062 -0.1875,-0.234375 -0.3632813,-0.4335938 -0.6914063,-0.4335938 -0.75,0 -1.20703123,0.9257813 -1.20703123,1.1367188 0,0.046875 0.0351563,0.1171875 0.1171875,0.1171875 0.09375,0 0.1171875,-0.058594 0.140625,-0.1171875 0.18750003,-0.4570313 0.76171873,-0.46875 0.84375003,-0.46875 0.2109375,0 0.3984375,0.070312 0.6210937,0.1523437 0.3984375,0.1523438 0.515625,0.1523438 0.7734375,0.1523438 -0.3632812,0.421875 -1.1953125,1.1367187 -1.3828125,1.3007812 l -0.90234373,0.8320313 c -0.6796875,0.66796874 -1.01953125,1.24218749 -1.01953125,1.31249999 0,0.09375 0.09375,0.09375 0.1171875,0.09375 0.08203125,0 0.09375,-0.01171875 0.15234375,-0.12890625 0.234375,-0.33984375 0.52734375,-0.609375 0.85546875,-0.609375 0.22265628,0 0.32812498,0.0820313 0.57421878,0.375 0.1640625,0.2109375 0.3515625,0.36328125 0.6328125,0.36328125 0.984375,0 1.5703125,-1.26562499 1.5703125,-1.53515629 0,-0.046875 -0.046875,-0.09375 -0.1171875,-0.09375 -0.09375,0 -0.1171875,0.058594 -0.140625,0.1289063 -0.234375,0.64453124 -0.8671875,0.83203124 -1.1953125,0.83203124 -0.1992188,0 -0.3867188,-0.0585938 -0.5859375,-0.12890625 -0.3398438,-0.12890625 -0.4921875,-0.1640625 -0.70312503,-0.1640625 -0.0234375,0 -0.17578125,0 -0.26953125,0.0234375 z m 0,0"
         style="fill:#ffffff;fill-opacity:1;fill-rule:nonzero;stroke:none" />
      <path
         id="path26"
         d="m 14.089008,-3.2591016 c 0.152344,0 0.339844,0 0.339844,-0.1992187 0,-0.1992188 -0.1875,-0.1992188 -0.328125,-0.1992188 H 8.1358828 c -0.140625,0 -0.328125,0 -0.328125,0.1992188 0,0.1992187 0.1875,0.1992187 0.3398438,0.1992187 z m 0.01172,1.9335938 c 0.140625,0 0.328125,0 0.328125,-0.1992188 0,-0.1992187 -0.1875,-0.1992187 -0.339844,-0.1992187 H 8.1476016 c -0.1523438,0 -0.3398438,0 -0.3398438,0.1992187 0,0.1992188 0.1875,0.1992188 0.328125,0.1992188 z m 0,0"
         style="fill:#ffffff;fill-opacity:1;fill-rule:nonzero;stroke:none" />
      <path
         id="path27"
         d="m 21.079242,-3.0130078 c 0.05859,-0.2578125 0.292969,-1.171875 0.984375,-1.171875 0.04687,0 0.292969,0 0.503906,0.1289062 -0.28125,0.046875 -0.480468,0.3046875 -0.480468,0.5390625 0,0.1640625 0.105468,0.3515625 0.375,0.3515625 0.222656,0 0.539062,-0.1875 0.539062,-0.5859375 0,-0.515625 -0.585937,-0.65625 -0.925781,-0.65625 -0.574219,0 -0.925781,0.5273438 -1.042969,0.7617188 -0.257812,-0.65625 -0.785156,-0.7617188 -1.078125,-0.7617188 -1.042969,0 -1.605469,1.2890625 -1.605469,1.5351563 0,0.1054687 0.105469,0.1054687 0.117188,0.1054687 0.08203,0 0.117187,-0.023437 0.128906,-0.1171875 0.339844,-1.0546875 0.996094,-1.3007812 1.335938,-1.3007812 0.1875,0 0.539062,0.09375 0.539062,0.6679687 0,0.3046875 -0.164062,0.9726563 -0.539062,2.3671875 -0.152344,0.62109379 -0.503907,1.04296879 -0.949219,1.04296879 -0.05859,0 -0.28125,0 -0.492188,-0.12890625 0.246094,-0.0585938 0.46875,-0.26953125 0.46875,-0.5390625 0,-0.26953124 -0.222656,-0.35156254 -0.375,-0.35156254 -0.292968,0 -0.539062,0.25781254 -0.539062,0.57421879 0,0.45703125 0.492187,0.65625 0.9375,0.65625 0.65625,0 1.007812,-0.69140625 1.042969,-0.75 0.117187,0.36328125 0.480468,0.75 1.078125,0.75 1.019531,0 1.59375,-1.27734379 1.59375,-1.53515629 0,-0.09375 -0.09375,-0.09375 -0.128907,-0.09375 -0.08203,0 -0.105468,0.035156 -0.128906,0.1054688 -0.328125,1.06640624 -0.996094,1.31249999 -1.324219,1.31249999 -0.386718,0 -0.539062,-0.328125 -0.539062,-0.65625 0,-0.22265625 0.05859,-0.44531249 0.164062,-0.87890629 z m 0,0"
         style="fill:#ffffff;fill-opacity:1;fill-rule:nonzero;stroke:none" />
      <path
         id="path28"
         d="m 32.229633,-2.2981641 c 0.175781,0 0.351562,0 0.351562,-0.1992187 0,-0.1992188 -0.175781,-0.1992188 -0.351562,-0.1992188 h -5.390625 c -0.164063,0 -0.339844,0 -0.339844,0.1992188 0,0.1992187 0.175781,0.1992187 0.339844,0.1992187 z m 0,0"
         style="fill:#ffffff;fill-opacity:1;fill-rule:nonzero;stroke:none" />
      <path
         id="path29"
         d="m 40.467914,-3.7981641 c 0.04687,-0.140625 0.04687,-0.1523437 0.04687,-0.2226562 0,-0.1875 -0.140625,-0.2695313 -0.292969,-0.2695313 -0.105468,0 -0.257812,0.058594 -0.351562,0.1992188 -0.02344,0.058594 -0.09375,0.3632812 -0.140625,0.5390625 -0.07031,0.2578125 -0.140625,0.5273437 -0.199219,0.796875 l -0.445312,1.79296874 c -0.03516,0.15234375 -0.46875,0.85546875 -1.125,0.85546875 -0.503907,0 -0.621094,-0.4453125 -0.621094,-0.80859375 0,-0.45703124 0.175781,-1.07812504 0.515625,-1.95703124 0.152344,-0.4101563 0.199219,-0.515625 0.199219,-0.7148438 0,-0.4453125 -0.328125,-0.8203125 -0.820313,-0.8203125 -0.949219,0 -1.3125,1.453125 -1.3125,1.5351563 0,0.1054687 0.09375,0.1054687 0.117188,0.1054687 0.09375,0 0.105468,-0.023437 0.152343,-0.1875 0.269532,-0.9375 0.667969,-1.2304687 1.007813,-1.2304687 0.08203,0 0.257812,0 0.257812,0.3164062 0,0.2460938 -0.105468,0.515625 -0.175781,0.703125 -0.398437,1.0546875 -0.574219,1.6171875 -0.574219,2.0859375 0,0.89062504 0.621094,1.18359379 1.21875,1.18359379 0.386719,0 0.726563,-0.1640625 0.996094,-0.4453125 -0.128906,0.515625 -0.246094,1.0078125 -0.644531,1.53515621 -0.257813,0.3398438 -0.632813,0.6328125 -1.089844,0.6328125 -0.140625,0 -0.597656,-0.035156 -0.761719,-0.421875 0.164063,0 0.292969,0 0.433594,-0.1171875 0.09375,-0.09375 0.199219,-0.2226562 0.199219,-0.41015621 0,-0.31640625 -0.269531,-0.3515625 -0.375,-0.3515625 -0.222656,0 -0.550781,0.1640625 -0.550781,0.64453121 0,0.5039063 0.433593,0.8671875 1.054687,0.8671875 1.019531,0 2.050781,-0.9023437 2.332031,-2.02734371 z m 3.228516,-2.4257812 c 0,-0.1992188 -0.128907,-0.3632813 -0.363282,-0.3632813 -0.269531,0 -0.539062,0.2578125 -0.539062,0.5273438 0,0.1875 0.140625,0.3632812 0.375,0.3632812 0.234375,0 0.527344,-0.234375 0.527344,-0.5273437 z m -0.75,3.7382812 c 0.117187,-0.28125 0.117187,-0.3046875 0.222656,-0.5742187 0.07031,-0.1992188 0.128906,-0.3398438 0.128906,-0.5273438 0,-0.4453125 -0.328125,-0.8203125 -0.820312,-0.8203125 -0.9375,0 -1.3125,1.453125 -1.3125,1.5351563 0,0.1054687 0.09375,0.1054687 0.117187,0.1054687 0.09375,0 0.105469,-0.023437 0.152344,-0.1875 0.269531,-0.9375 0.667969,-1.2304687 1.007812,-1.2304687 0.08203,0 0.257813,0 0.257813,0.3164062 0,0.2109375 -0.07031,0.421875 -0.117188,0.515625 -0.08203,0.2578125 -0.527343,1.4179688 -0.679687,1.8515625 -0.105469,0.2578125 -0.234375,0.58593754 -0.234375,0.79687504 0,0.46875 0.339844,0.80859375 0.820312,0.80859375 0.9375,0 1.300782,-1.44140629 1.300782,-1.53515629 0,-0.09375 -0.09375,-0.09375 -0.117188,-0.09375 -0.105469,0 -0.105469,0.023437 -0.152344,0.1757813 -0.175781,0.63281249 -0.503906,1.24218749 -1.019531,1.24218749 -0.164062,0 -0.234375,-0.10546875 -0.234375,-0.328125 0,-0.2578125 0.05859,-0.3984375 0.292969,-0.99609379 z m 0,0"
         style="fill:#ffffff;fill-opacity:1;fill-rule:nonzero;stroke:none" />
    </g>
  </g>
</svg>
